<mxfile host="app.diagrams.net" modified="2024-02-02T07:38:32.983Z" agent="Mozilla/5.0 (Windows NT 10.0; Win64; x64) AppleWebKit/537.36 (KHTML, like Gecko) Chrome/120.0.0.0 Safari/537.36" etag="R6TXD2AeUH6uY3k6B3y2" version="23.1.1" type="google">
  <diagram id="R2lEEEUBdFMjLlhIrx00" name="Page-1">
    <mxGraphModel grid="1" page="1" gridSize="10" guides="1" tooltips="1" connect="1" arrows="1" fold="1" pageScale="1" pageWidth="850" pageHeight="1100" math="0" shadow="0" extFonts="Permanent Marker^https://fonts.googleapis.com/css?family=Permanent+Marker">
      <root>
        <mxCell id="0" />
        <mxCell id="1" parent="0" />
        <mxCell id="OhS_zILh5ZkijewUsAzo-1" value="Film" style="shape=table;startSize=30;container=1;collapsible=1;childLayout=tableLayout;fixedRows=1;rowLines=0;fontStyle=1;align=center;resizeLast=1;fontSize=20;" vertex="1" parent="1">
          <mxGeometry x="440" y="640" width="250" height="360" as="geometry">
            <mxRectangle x="434" y="70" width="70" height="30" as="alternateBounds" />
          </mxGeometry>
        </mxCell>
        <mxCell id="OhS_zILh5ZkijewUsAzo-2" value="" style="shape=partialRectangle;collapsible=0;dropTarget=0;pointerEvents=0;fillColor=none;points=[[0,0.5],[1,0.5]];portConstraint=eastwest;top=0;left=0;right=0;bottom=1;fontSize=20;" vertex="1" parent="OhS_zILh5ZkijewUsAzo-1">
          <mxGeometry y="30" width="250" height="30" as="geometry" />
        </mxCell>
        <mxCell id="OhS_zILh5ZkijewUsAzo-3" value="#" style="shape=partialRectangle;overflow=hidden;connectable=0;fillColor=none;top=0;left=0;bottom=0;right=0;fontStyle=1;fontSize=20;" vertex="1" parent="OhS_zILh5ZkijewUsAzo-2">
          <mxGeometry width="30" height="30" as="geometry">
            <mxRectangle width="30" height="30" as="alternateBounds" />
          </mxGeometry>
        </mxCell>
        <mxCell id="OhS_zILh5ZkijewUsAzo-4" value="Id" style="shape=partialRectangle;overflow=hidden;connectable=0;fillColor=none;top=0;left=0;bottom=0;right=0;align=left;spacingLeft=6;fontStyle=0;fontSize=20;" vertex="1" parent="OhS_zILh5ZkijewUsAzo-2">
          <mxGeometry x="30" width="220" height="30" as="geometry">
            <mxRectangle width="220" height="30" as="alternateBounds" />
          </mxGeometry>
        </mxCell>
        <mxCell id="OhS_zILh5ZkijewUsAzo-5" value="" style="shape=partialRectangle;collapsible=0;dropTarget=0;pointerEvents=0;fillColor=none;points=[[0,0.5],[1,0.5]];portConstraint=eastwest;top=0;left=0;right=0;bottom=0;fontSize=20;" vertex="1" parent="OhS_zILh5ZkijewUsAzo-1">
          <mxGeometry y="60" width="250" height="30" as="geometry" />
        </mxCell>
        <mxCell id="OhS_zILh5ZkijewUsAzo-6" value="*" style="shape=partialRectangle;overflow=hidden;connectable=0;fillColor=none;top=0;left=0;bottom=0;right=0;fontSize=20;" vertex="1" parent="OhS_zILh5ZkijewUsAzo-5">
          <mxGeometry width="30" height="30" as="geometry">
            <mxRectangle width="30" height="30" as="alternateBounds" />
          </mxGeometry>
        </mxCell>
        <mxCell id="OhS_zILh5ZkijewUsAzo-7" value="Cim" style="shape=partialRectangle;overflow=hidden;connectable=0;fillColor=none;top=0;left=0;bottom=0;right=0;align=left;spacingLeft=6;fontSize=20;" vertex="1" parent="OhS_zILh5ZkijewUsAzo-5">
          <mxGeometry x="30" width="220" height="30" as="geometry">
            <mxRectangle width="220" height="30" as="alternateBounds" />
          </mxGeometry>
        </mxCell>
        <mxCell id="OhS_zILh5ZkijewUsAzo-8" value="" style="shape=partialRectangle;collapsible=0;dropTarget=0;pointerEvents=0;fillColor=none;points=[[0,0.5],[1,0.5]];portConstraint=eastwest;top=0;left=0;right=0;bottom=0;fontSize=20;" vertex="1" parent="OhS_zILh5ZkijewUsAzo-1">
          <mxGeometry y="90" width="250" height="30" as="geometry" />
        </mxCell>
        <mxCell id="OhS_zILh5ZkijewUsAzo-9" value="*" style="shape=partialRectangle;overflow=hidden;connectable=0;fillColor=none;top=0;left=0;bottom=0;right=0;fontSize=20;" vertex="1" parent="OhS_zILh5ZkijewUsAzo-8">
          <mxGeometry width="30" height="30" as="geometry">
            <mxRectangle width="30" height="30" as="alternateBounds" />
          </mxGeometry>
        </mxCell>
        <mxCell id="OhS_zILh5ZkijewUsAzo-10" value="Kategoria" style="shape=partialRectangle;overflow=hidden;connectable=0;fillColor=none;top=0;left=0;bottom=0;right=0;align=left;spacingLeft=6;fontSize=20;" vertex="1" parent="OhS_zILh5ZkijewUsAzo-8">
          <mxGeometry x="30" width="220" height="30" as="geometry">
            <mxRectangle width="220" height="30" as="alternateBounds" />
          </mxGeometry>
        </mxCell>
        <mxCell id="OhS_zILh5ZkijewUsAzo-11" value="" style="shape=partialRectangle;collapsible=0;dropTarget=0;pointerEvents=0;fillColor=none;points=[[0,0.5],[1,0.5]];portConstraint=eastwest;top=0;left=0;right=0;bottom=0;fontSize=20;" vertex="1" parent="OhS_zILh5ZkijewUsAzo-1">
          <mxGeometry y="120" width="250" height="30" as="geometry" />
        </mxCell>
        <mxCell id="OhS_zILh5ZkijewUsAzo-12" value="*" style="shape=partialRectangle;overflow=hidden;connectable=0;fillColor=none;top=0;left=0;bottom=0;right=0;fontSize=20;" vertex="1" parent="OhS_zILh5ZkijewUsAzo-11">
          <mxGeometry width="30" height="30" as="geometry">
            <mxRectangle width="30" height="30" as="alternateBounds" />
          </mxGeometry>
        </mxCell>
        <mxCell id="OhS_zILh5ZkijewUsAzo-13" value="Rendezo" style="shape=partialRectangle;overflow=hidden;connectable=0;fillColor=none;top=0;left=0;bottom=0;right=0;align=left;spacingLeft=6;fontSize=20;" vertex="1" parent="OhS_zILh5ZkijewUsAzo-11">
          <mxGeometry x="30" width="220" height="30" as="geometry">
            <mxRectangle width="220" height="30" as="alternateBounds" />
          </mxGeometry>
        </mxCell>
        <mxCell id="OhS_zILh5ZkijewUsAzo-14" value="" style="shape=partialRectangle;collapsible=0;dropTarget=0;pointerEvents=0;fillColor=none;points=[[0,0.5],[1,0.5]];portConstraint=eastwest;top=0;left=0;right=0;bottom=0;fontSize=20;" vertex="1" parent="OhS_zILh5ZkijewUsAzo-1">
          <mxGeometry y="150" width="250" height="30" as="geometry" />
        </mxCell>
        <mxCell id="OhS_zILh5ZkijewUsAzo-15" value="*" style="shape=partialRectangle;overflow=hidden;connectable=0;fillColor=none;top=0;left=0;bottom=0;right=0;fontSize=20;" vertex="1" parent="OhS_zILh5ZkijewUsAzo-14">
          <mxGeometry width="30" height="30" as="geometry">
            <mxRectangle width="30" height="30" as="alternateBounds" />
          </mxGeometry>
        </mxCell>
        <mxCell id="OhS_zILh5ZkijewUsAzo-16" value="Hossz" style="shape=partialRectangle;overflow=hidden;connectable=0;fillColor=none;top=0;left=0;bottom=0;right=0;align=left;spacingLeft=6;fontSize=20;" vertex="1" parent="OhS_zILh5ZkijewUsAzo-14">
          <mxGeometry x="30" width="220" height="30" as="geometry">
            <mxRectangle width="220" height="30" as="alternateBounds" />
          </mxGeometry>
        </mxCell>
        <mxCell id="OhS_zILh5ZkijewUsAzo-17" value="" style="shape=partialRectangle;collapsible=0;dropTarget=0;pointerEvents=0;fillColor=none;points=[[0,0.5],[1,0.5]];portConstraint=eastwest;top=0;left=0;right=0;bottom=0;fontSize=20;" vertex="1" parent="OhS_zILh5ZkijewUsAzo-1">
          <mxGeometry y="180" width="250" height="30" as="geometry" />
        </mxCell>
        <mxCell id="OhS_zILh5ZkijewUsAzo-18" value="*" style="shape=partialRectangle;overflow=hidden;connectable=0;fillColor=none;top=0;left=0;bottom=0;right=0;fontSize=20;" vertex="1" parent="OhS_zILh5ZkijewUsAzo-17">
          <mxGeometry width="30" height="30" as="geometry">
            <mxRectangle width="30" height="30" as="alternateBounds" />
          </mxGeometry>
        </mxCell>
        <mxCell id="OhS_zILh5ZkijewUsAzo-19" value="Korhatar" style="shape=partialRectangle;overflow=hidden;connectable=0;fillColor=none;top=0;left=0;bottom=0;right=0;align=left;spacingLeft=6;fontSize=20;" vertex="1" parent="OhS_zILh5ZkijewUsAzo-17">
          <mxGeometry x="30" width="220" height="30" as="geometry">
            <mxRectangle width="220" height="30" as="alternateBounds" />
          </mxGeometry>
        </mxCell>
        <mxCell id="OhS_zILh5ZkijewUsAzo-20" value="" style="shape=partialRectangle;collapsible=0;dropTarget=0;pointerEvents=0;fillColor=none;points=[[0,0.5],[1,0.5]];portConstraint=eastwest;top=0;left=0;right=0;bottom=0;fontSize=20;" vertex="1" parent="OhS_zILh5ZkijewUsAzo-1">
          <mxGeometry y="210" width="250" height="30" as="geometry" />
        </mxCell>
        <mxCell id="OhS_zILh5ZkijewUsAzo-21" value="*" style="shape=partialRectangle;overflow=hidden;connectable=0;fillColor=none;top=0;left=0;bottom=0;right=0;fontSize=20;" vertex="1" parent="OhS_zILh5ZkijewUsAzo-20">
          <mxGeometry width="30" height="30" as="geometry">
            <mxRectangle width="30" height="30" as="alternateBounds" />
          </mxGeometry>
        </mxCell>
        <mxCell id="OhS_zILh5ZkijewUsAzo-22" value="Tipus" style="shape=partialRectangle;overflow=hidden;connectable=0;fillColor=none;top=0;left=0;bottom=0;right=0;align=left;spacingLeft=6;fontSize=20;" vertex="1" parent="OhS_zILh5ZkijewUsAzo-20">
          <mxGeometry x="30" width="220" height="30" as="geometry">
            <mxRectangle width="220" height="30" as="alternateBounds" />
          </mxGeometry>
        </mxCell>
        <mxCell id="OhS_zILh5ZkijewUsAzo-23" value="" style="shape=partialRectangle;collapsible=0;dropTarget=0;pointerEvents=0;fillColor=none;points=[[0,0.5],[1,0.5]];portConstraint=eastwest;top=0;left=0;right=0;bottom=0;fontSize=20;" vertex="1" parent="OhS_zILh5ZkijewUsAzo-1">
          <mxGeometry y="240" width="250" height="30" as="geometry" />
        </mxCell>
        <mxCell id="OhS_zILh5ZkijewUsAzo-24" value="*" style="shape=partialRectangle;overflow=hidden;connectable=0;fillColor=none;top=0;left=0;bottom=0;right=0;fontSize=20;" vertex="1" parent="OhS_zILh5ZkijewUsAzo-23">
          <mxGeometry width="30" height="30" as="geometry">
            <mxRectangle width="30" height="30" as="alternateBounds" />
          </mxGeometry>
        </mxCell>
        <mxCell id="OhS_zILh5ZkijewUsAzo-25" value="Megjelenesi_Ev" style="shape=partialRectangle;overflow=hidden;connectable=0;fillColor=none;top=0;left=0;bottom=0;right=0;align=left;spacingLeft=6;fontSize=20;" vertex="1" parent="OhS_zILh5ZkijewUsAzo-23">
          <mxGeometry x="30" width="220" height="30" as="geometry">
            <mxRectangle width="220" height="30" as="alternateBounds" />
          </mxGeometry>
        </mxCell>
        <mxCell id="OhS_zILh5ZkijewUsAzo-26" value="" style="shape=partialRectangle;collapsible=0;dropTarget=0;pointerEvents=0;fillColor=none;points=[[0,0.5],[1,0.5]];portConstraint=eastwest;top=0;left=0;right=0;bottom=0;fontSize=20;" vertex="1" parent="OhS_zILh5ZkijewUsAzo-1">
          <mxGeometry y="270" width="250" height="30" as="geometry" />
        </mxCell>
        <mxCell id="OhS_zILh5ZkijewUsAzo-27" value="*" style="shape=partialRectangle;overflow=hidden;connectable=0;fillColor=none;top=0;left=0;bottom=0;right=0;fontSize=20;" vertex="1" parent="OhS_zILh5ZkijewUsAzo-26">
          <mxGeometry width="30" height="30" as="geometry">
            <mxRectangle width="30" height="30" as="alternateBounds" />
          </mxGeometry>
        </mxCell>
        <mxCell id="OhS_zILh5ZkijewUsAzo-28" value="Nyelv" style="shape=partialRectangle;overflow=hidden;connectable=0;fillColor=none;top=0;left=0;bottom=0;right=0;align=left;spacingLeft=6;fontSize=20;" vertex="1" parent="OhS_zILh5ZkijewUsAzo-26">
          <mxGeometry x="30" width="220" height="30" as="geometry">
            <mxRectangle width="220" height="30" as="alternateBounds" />
          </mxGeometry>
        </mxCell>
        <mxCell id="OhS_zILh5ZkijewUsAzo-29" value="" style="shape=partialRectangle;collapsible=0;dropTarget=0;pointerEvents=0;fillColor=none;points=[[0,0.5],[1,0.5]];portConstraint=eastwest;top=0;left=0;right=0;bottom=0;fontSize=20;" vertex="1" parent="OhS_zILh5ZkijewUsAzo-1">
          <mxGeometry y="300" width="250" height="30" as="geometry" />
        </mxCell>
        <mxCell id="OhS_zILh5ZkijewUsAzo-30" value="*" style="shape=partialRectangle;overflow=hidden;connectable=0;fillColor=none;top=0;left=0;bottom=0;right=0;fontSize=20;" vertex="1" parent="OhS_zILh5ZkijewUsAzo-29">
          <mxGeometry width="30" height="30" as="geometry">
            <mxRectangle width="30" height="30" as="alternateBounds" />
          </mxGeometry>
        </mxCell>
        <mxCell id="OhS_zILh5ZkijewUsAzo-31" value="Szereplok" style="shape=partialRectangle;overflow=hidden;connectable=0;fillColor=none;top=0;left=0;bottom=0;right=0;align=left;spacingLeft=6;fontSize=20;" vertex="1" parent="OhS_zILh5ZkijewUsAzo-29">
          <mxGeometry x="30" width="220" height="30" as="geometry">
            <mxRectangle width="220" height="30" as="alternateBounds" />
          </mxGeometry>
        </mxCell>
        <mxCell id="OhS_zILh5ZkijewUsAzo-32" value="" style="shape=partialRectangle;collapsible=0;dropTarget=0;pointerEvents=0;fillColor=none;points=[[0,0.5],[1,0.5]];portConstraint=eastwest;top=0;left=0;right=0;bottom=0;fontSize=20;" vertex="1" parent="OhS_zILh5ZkijewUsAzo-1">
          <mxGeometry y="330" width="250" height="30" as="geometry" />
        </mxCell>
        <mxCell id="OhS_zILh5ZkijewUsAzo-33" value="o" style="shape=partialRectangle;overflow=hidden;connectable=0;fillColor=none;top=0;left=0;bottom=0;right=0;fontSize=20;" vertex="1" parent="OhS_zILh5ZkijewUsAzo-32">
          <mxGeometry width="30" height="30" as="geometry">
            <mxRectangle width="30" height="30" as="alternateBounds" />
          </mxGeometry>
        </mxCell>
        <mxCell id="OhS_zILh5ZkijewUsAzo-34" value="Felirat" style="shape=partialRectangle;overflow=hidden;connectable=0;fillColor=none;top=0;left=0;bottom=0;right=0;align=left;spacingLeft=6;fontSize=20;" vertex="1" parent="OhS_zILh5ZkijewUsAzo-32">
          <mxGeometry x="30" width="220" height="30" as="geometry">
            <mxRectangle width="220" height="30" as="alternateBounds" />
          </mxGeometry>
        </mxCell>
        <object label="Mozi" k="" id="OhS_zILh5ZkijewUsAzo-35">
          <mxCell style="shape=table;startSize=30;container=1;collapsible=1;childLayout=tableLayout;fixedRows=1;rowLines=0;fontStyle=1;align=center;resizeLast=1;strokeColor=default;fontSize=20;strokeWidth=1;perimeterSpacing=0;rounded=0;shadow=0;swimlaneLine=1;columnLines=1;horizontal=1;top=1;bottom=1;" vertex="1" parent="1">
            <mxGeometry x="94" y="470" width="250" height="330" as="geometry" />
          </mxCell>
        </object>
        <mxCell id="OhS_zILh5ZkijewUsAzo-36" value="" style="shape=partialRectangle;collapsible=0;dropTarget=0;pointerEvents=0;fillColor=none;points=[[0,0.5],[1,0.5]];portConstraint=eastwest;top=0;left=0;right=0;bottom=1;fontSize=20;" vertex="1" parent="OhS_zILh5ZkijewUsAzo-35">
          <mxGeometry y="30" width="250" height="30" as="geometry" />
        </mxCell>
        <mxCell id="OhS_zILh5ZkijewUsAzo-37" value="#" style="shape=partialRectangle;overflow=hidden;connectable=0;fillColor=none;top=0;left=0;bottom=0;right=0;fontStyle=1;fontSize=20;" vertex="1" parent="OhS_zILh5ZkijewUsAzo-36">
          <mxGeometry width="30" height="30" as="geometry">
            <mxRectangle width="30" height="30" as="alternateBounds" />
          </mxGeometry>
        </mxCell>
        <mxCell id="OhS_zILh5ZkijewUsAzo-38" value="Id" style="shape=partialRectangle;overflow=hidden;connectable=0;fillColor=none;top=0;left=0;bottom=0;right=0;align=left;spacingLeft=6;fontStyle=0;fontSize=20;" vertex="1" parent="OhS_zILh5ZkijewUsAzo-36">
          <mxGeometry x="30" width="220" height="30" as="geometry">
            <mxRectangle width="220" height="30" as="alternateBounds" />
          </mxGeometry>
        </mxCell>
        <mxCell id="OhS_zILh5ZkijewUsAzo-39" value="" style="shape=partialRectangle;collapsible=0;dropTarget=0;pointerEvents=0;fillColor=none;points=[[0,0.5],[1,0.5]];portConstraint=eastwest;top=0;left=0;right=0;bottom=0;fontSize=20;" vertex="1" parent="OhS_zILh5ZkijewUsAzo-35">
          <mxGeometry y="60" width="250" height="30" as="geometry" />
        </mxCell>
        <mxCell id="OhS_zILh5ZkijewUsAzo-40" value="*" style="shape=partialRectangle;overflow=hidden;connectable=0;fillColor=none;top=0;left=0;bottom=0;right=0;fontSize=20;" vertex="1" parent="OhS_zILh5ZkijewUsAzo-39">
          <mxGeometry width="30" height="30" as="geometry">
            <mxRectangle width="30" height="30" as="alternateBounds" />
          </mxGeometry>
        </mxCell>
        <mxCell id="OhS_zILh5ZkijewUsAzo-41" value="Telepules_Nev" style="shape=partialRectangle;overflow=hidden;connectable=0;fillColor=none;top=0;left=0;bottom=0;right=0;align=left;spacingLeft=6;fontSize=20;" vertex="1" parent="OhS_zILh5ZkijewUsAzo-39">
          <mxGeometry x="30" width="220" height="30" as="geometry">
            <mxRectangle width="220" height="30" as="alternateBounds" />
          </mxGeometry>
        </mxCell>
        <mxCell id="OhS_zILh5ZkijewUsAzo-42" value="" style="shape=partialRectangle;collapsible=0;dropTarget=0;pointerEvents=0;fillColor=none;points=[[0,0.5],[1,0.5]];portConstraint=eastwest;top=0;left=0;right=0;bottom=0;fontSize=20;" vertex="1" parent="OhS_zILh5ZkijewUsAzo-35">
          <mxGeometry y="90" width="250" height="30" as="geometry" />
        </mxCell>
        <mxCell id="OhS_zILh5ZkijewUsAzo-43" value="*" style="shape=partialRectangle;overflow=hidden;connectable=0;fillColor=none;top=0;left=0;bottom=0;right=0;fontSize=20;" vertex="1" parent="OhS_zILh5ZkijewUsAzo-42">
          <mxGeometry width="30" height="30" as="geometry">
            <mxRectangle width="30" height="30" as="alternateBounds" />
          </mxGeometry>
        </mxCell>
        <mxCell id="OhS_zILh5ZkijewUsAzo-44" value="Ir_Szam" style="shape=partialRectangle;overflow=hidden;connectable=0;fillColor=none;top=0;left=0;bottom=0;right=0;align=left;spacingLeft=6;fontSize=20;" vertex="1" parent="OhS_zILh5ZkijewUsAzo-42">
          <mxGeometry x="30" width="220" height="30" as="geometry">
            <mxRectangle width="220" height="30" as="alternateBounds" />
          </mxGeometry>
        </mxCell>
        <mxCell id="OhS_zILh5ZkijewUsAzo-45" value="" style="shape=partialRectangle;collapsible=0;dropTarget=0;pointerEvents=0;fillColor=none;points=[[0,0.5],[1,0.5]];portConstraint=eastwest;top=0;left=0;right=0;bottom=0;fontSize=20;" vertex="1" parent="OhS_zILh5ZkijewUsAzo-35">
          <mxGeometry y="120" width="250" height="30" as="geometry" />
        </mxCell>
        <mxCell id="OhS_zILh5ZkijewUsAzo-46" value="*" style="shape=partialRectangle;overflow=hidden;connectable=0;fillColor=none;top=0;left=0;bottom=0;right=0;fontSize=20;" vertex="1" parent="OhS_zILh5ZkijewUsAzo-45">
          <mxGeometry width="30" height="30" as="geometry">
            <mxRectangle width="30" height="30" as="alternateBounds" />
          </mxGeometry>
        </mxCell>
        <mxCell id="OhS_zILh5ZkijewUsAzo-47" value="Kozterulet_Nev" style="shape=partialRectangle;overflow=hidden;connectable=0;fillColor=none;top=0;left=0;bottom=0;right=0;align=left;spacingLeft=6;fontSize=20;" vertex="1" parent="OhS_zILh5ZkijewUsAzo-45">
          <mxGeometry x="30" width="220" height="30" as="geometry">
            <mxRectangle width="220" height="30" as="alternateBounds" />
          </mxGeometry>
        </mxCell>
        <mxCell id="OhS_zILh5ZkijewUsAzo-48" value="" style="shape=partialRectangle;collapsible=0;dropTarget=0;pointerEvents=0;fillColor=none;points=[[0,0.5],[1,0.5]];portConstraint=eastwest;top=0;left=0;right=0;bottom=0;fontSize=20;" vertex="1" parent="OhS_zILh5ZkijewUsAzo-35">
          <mxGeometry y="150" width="250" height="30" as="geometry" />
        </mxCell>
        <mxCell id="OhS_zILh5ZkijewUsAzo-49" value="*" style="shape=partialRectangle;overflow=hidden;connectable=0;fillColor=none;top=0;left=0;bottom=0;right=0;fontSize=20;" vertex="1" parent="OhS_zILh5ZkijewUsAzo-48">
          <mxGeometry width="30" height="30" as="geometry">
            <mxRectangle width="30" height="30" as="alternateBounds" />
          </mxGeometry>
        </mxCell>
        <mxCell id="OhS_zILh5ZkijewUsAzo-50" value="Kozterulet_Tipus" style="shape=partialRectangle;overflow=hidden;connectable=0;fillColor=none;top=0;left=0;bottom=0;right=0;align=left;spacingLeft=6;fontSize=20;strokeColor=default;" vertex="1" parent="OhS_zILh5ZkijewUsAzo-48">
          <mxGeometry x="30" width="220" height="30" as="geometry">
            <mxRectangle width="220" height="30" as="alternateBounds" />
          </mxGeometry>
        </mxCell>
        <mxCell id="OhS_zILh5ZkijewUsAzo-51" value="" style="shape=partialRectangle;collapsible=0;dropTarget=0;pointerEvents=0;fillColor=none;points=[[0,0.5],[1,0.5]];portConstraint=eastwest;top=0;left=0;right=0;bottom=1;movable=1;resizable=1;rotatable=1;deletable=1;editable=1;locked=0;connectable=1;fontSize=20;strokeColor=#FFFFFF;dashed=1;" vertex="1" parent="OhS_zILh5ZkijewUsAzo-35">
          <mxGeometry y="180" width="250" height="30" as="geometry" />
        </mxCell>
        <mxCell id="OhS_zILh5ZkijewUsAzo-52" value="*" style="shape=partialRectangle;overflow=hidden;connectable=0;fillColor=none;top=0;left=0;bottom=0;right=0;fontStyle=0;fontSize=20;" vertex="1" parent="OhS_zILh5ZkijewUsAzo-51">
          <mxGeometry width="30" height="30" as="geometry">
            <mxRectangle width="30" height="30" as="alternateBounds" />
          </mxGeometry>
        </mxCell>
        <mxCell id="OhS_zILh5ZkijewUsAzo-53" value="Haz_Szam" style="shape=partialRectangle;overflow=hidden;connectable=1;fillColor=none;top=0;left=0;bottom=0;right=0;align=left;spacingLeft=6;fontStyle=0;movable=1;resizable=1;rotatable=1;deletable=1;editable=1;locked=0;fontSize=20;" vertex="1" parent="OhS_zILh5ZkijewUsAzo-51">
          <mxGeometry x="30" width="220" height="30" as="geometry">
            <mxRectangle width="220" height="30" as="alternateBounds" />
          </mxGeometry>
        </mxCell>
        <mxCell id="OhS_zILh5ZkijewUsAzo-54" value="" style="shape=partialRectangle;collapsible=0;dropTarget=0;pointerEvents=0;fillColor=none;points=[[0,0.5],[1,0.5]];portConstraint=eastwest;top=0;left=0;right=0;bottom=1;movable=1;resizable=1;rotatable=1;deletable=1;editable=1;locked=0;connectable=1;strokeColor=#FFFFFF;fontSize=20;" vertex="1" parent="OhS_zILh5ZkijewUsAzo-35">
          <mxGeometry y="210" width="250" height="30" as="geometry" />
        </mxCell>
        <mxCell id="OhS_zILh5ZkijewUsAzo-55" value="*" style="shape=partialRectangle;overflow=hidden;connectable=0;fillColor=none;top=0;left=0;bottom=0;right=0;fontStyle=0;fontSize=20;" vertex="1" parent="OhS_zILh5ZkijewUsAzo-54">
          <mxGeometry width="30" height="30" as="geometry">
            <mxRectangle width="30" height="30" as="alternateBounds" />
          </mxGeometry>
        </mxCell>
        <mxCell id="OhS_zILh5ZkijewUsAzo-56" value="Mozi_Nev" style="shape=partialRectangle;overflow=hidden;connectable=1;fillColor=none;top=0;left=0;bottom=0;right=0;align=left;spacingLeft=6;fontStyle=0;movable=1;resizable=1;rotatable=1;deletable=1;editable=1;locked=0;strokeColor=inherit;fontSize=20;" vertex="1" parent="OhS_zILh5ZkijewUsAzo-54">
          <mxGeometry x="30" width="220" height="30" as="geometry">
            <mxRectangle width="220" height="30" as="alternateBounds" />
          </mxGeometry>
        </mxCell>
        <mxCell id="OhS_zILh5ZkijewUsAzo-57" value="" style="shape=partialRectangle;collapsible=0;dropTarget=0;pointerEvents=0;fillColor=none;points=[[0,0.5],[1,0.5]];portConstraint=eastwest;top=0;left=0;right=0;bottom=1;movable=1;resizable=1;rotatable=1;deletable=1;editable=1;locked=0;connectable=1;fontSize=20;strokeColor=#FFFFFF;" vertex="1" parent="OhS_zILh5ZkijewUsAzo-35">
          <mxGeometry y="240" width="250" height="30" as="geometry" />
        </mxCell>
        <mxCell id="OhS_zILh5ZkijewUsAzo-58" value="*" style="shape=partialRectangle;overflow=hidden;connectable=0;fillColor=none;top=0;left=0;bottom=0;right=0;fontStyle=0;fontSize=20;" vertex="1" parent="OhS_zILh5ZkijewUsAzo-57">
          <mxGeometry width="30" height="30" as="geometry">
            <mxRectangle width="30" height="30" as="alternateBounds" />
          </mxGeometry>
        </mxCell>
        <mxCell id="OhS_zILh5ZkijewUsAzo-59" value="Weboldal" style="shape=partialRectangle;overflow=hidden;connectable=1;fillColor=none;top=0;left=0;bottom=0;right=0;align=left;spacingLeft=6;fontStyle=0;movable=1;resizable=1;rotatable=1;deletable=1;editable=1;locked=0;strokeColor=inherit;fontSize=20;" vertex="1" parent="OhS_zILh5ZkijewUsAzo-57">
          <mxGeometry x="30" width="220" height="30" as="geometry">
            <mxRectangle width="220" height="30" as="alternateBounds" />
          </mxGeometry>
        </mxCell>
        <mxCell id="OhS_zILh5ZkijewUsAzo-60" value="" style="shape=partialRectangle;collapsible=0;dropTarget=0;pointerEvents=0;fillColor=none;points=[[0,0.5],[1,0.5]];portConstraint=eastwest;top=0;left=0;right=0;bottom=1;movable=1;resizable=1;rotatable=1;deletable=1;editable=1;locked=0;connectable=1;fontSize=20;strokeColor=#FFFFFF;" vertex="1" parent="OhS_zILh5ZkijewUsAzo-35">
          <mxGeometry y="270" width="250" height="30" as="geometry" />
        </mxCell>
        <mxCell id="OhS_zILh5ZkijewUsAzo-61" value="*" style="shape=partialRectangle;overflow=hidden;connectable=0;fillColor=none;top=0;left=0;bottom=0;right=0;fontStyle=0;fontSize=20;" vertex="1" parent="OhS_zILh5ZkijewUsAzo-60">
          <mxGeometry width="30" height="30" as="geometry">
            <mxRectangle width="30" height="30" as="alternateBounds" />
          </mxGeometry>
        </mxCell>
        <mxCell id="OhS_zILh5ZkijewUsAzo-62" value="Telefonszam" style="shape=partialRectangle;overflow=hidden;connectable=1;fillColor=none;top=0;left=0;bottom=0;right=0;align=left;spacingLeft=6;fontStyle=0;movable=1;resizable=1;rotatable=1;deletable=1;editable=1;locked=0;strokeColor=inherit;fontSize=20;" vertex="1" parent="OhS_zILh5ZkijewUsAzo-60">
          <mxGeometry x="30" width="220" height="30" as="geometry">
            <mxRectangle width="220" height="30" as="alternateBounds" />
          </mxGeometry>
        </mxCell>
        <mxCell id="OhS_zILh5ZkijewUsAzo-63" value="" style="shape=partialRectangle;collapsible=0;dropTarget=0;pointerEvents=0;fillColor=none;points=[[0,0.5],[1,0.5]];portConstraint=eastwest;top=0;left=0;right=0;bottom=1;movable=1;resizable=1;rotatable=1;deletable=1;editable=1;locked=0;connectable=1;fontSize=20;" vertex="1" parent="OhS_zILh5ZkijewUsAzo-35">
          <mxGeometry y="300" width="250" height="30" as="geometry" />
        </mxCell>
        <mxCell id="OhS_zILh5ZkijewUsAzo-64" value="*" style="shape=partialRectangle;overflow=hidden;connectable=0;fillColor=none;top=0;left=0;bottom=0;right=0;fontStyle=0;fontSize=20;" vertex="1" parent="OhS_zILh5ZkijewUsAzo-63">
          <mxGeometry width="30" height="30" as="geometry">
            <mxRectangle width="30" height="30" as="alternateBounds" />
          </mxGeometry>
        </mxCell>
        <mxCell id="OhS_zILh5ZkijewUsAzo-65" value="E_mail" style="shape=partialRectangle;overflow=hidden;connectable=1;fillColor=none;top=0;left=0;bottom=0;right=0;align=left;spacingLeft=6;fontStyle=0;movable=1;resizable=1;rotatable=1;deletable=1;editable=1;locked=0;fontSize=20;" vertex="1" parent="OhS_zILh5ZkijewUsAzo-63">
          <mxGeometry x="30" width="220" height="30" as="geometry">
            <mxRectangle width="220" height="30" as="alternateBounds" />
          </mxGeometry>
        </mxCell>
        <object label="Terem" k="" id="OhS_zILh5ZkijewUsAzo-66">
          <mxCell style="shape=table;startSize=30;container=1;collapsible=1;childLayout=tableLayout;fixedRows=1;rowLines=0;fontStyle=1;align=center;resizeLast=1;fontSize=20;" vertex="1" parent="1">
            <mxGeometry x="94" y="220" width="250" height="150" as="geometry">
              <mxRectangle x="120" y="410" width="110" height="30" as="alternateBounds" />
            </mxGeometry>
          </mxCell>
        </object>
        <mxCell id="OhS_zILh5ZkijewUsAzo-67" value="" style="shape=partialRectangle;collapsible=0;dropTarget=0;pointerEvents=0;fillColor=none;points=[[0,0.5],[1,0.5]];portConstraint=eastwest;top=0;left=0;right=0;bottom=1;fontSize=20;" vertex="1" parent="OhS_zILh5ZkijewUsAzo-66">
          <mxGeometry y="30" width="250" height="30" as="geometry" />
        </mxCell>
        <mxCell id="OhS_zILh5ZkijewUsAzo-68" value="#" style="shape=partialRectangle;overflow=hidden;connectable=0;fillColor=none;top=0;left=0;bottom=0;right=0;fontStyle=1;fontSize=20;" vertex="1" parent="OhS_zILh5ZkijewUsAzo-67">
          <mxGeometry width="30" height="30" as="geometry">
            <mxRectangle width="30" height="30" as="alternateBounds" />
          </mxGeometry>
        </mxCell>
        <mxCell id="OhS_zILh5ZkijewUsAzo-69" value="Id" style="shape=partialRectangle;overflow=hidden;connectable=0;fillColor=none;top=0;left=0;bottom=0;right=0;align=left;spacingLeft=6;fontStyle=0;fontSize=20;" vertex="1" parent="OhS_zILh5ZkijewUsAzo-67">
          <mxGeometry x="30" width="220" height="30" as="geometry">
            <mxRectangle width="220" height="30" as="alternateBounds" />
          </mxGeometry>
        </mxCell>
        <mxCell id="OhS_zILh5ZkijewUsAzo-73" value="" style="shape=partialRectangle;collapsible=0;dropTarget=0;pointerEvents=0;fillColor=none;points=[[0,0.5],[1,0.5]];portConstraint=eastwest;top=0;left=0;right=0;bottom=0;fontSize=20;" vertex="1" parent="OhS_zILh5ZkijewUsAzo-66">
          <mxGeometry y="60" width="250" height="30" as="geometry" />
        </mxCell>
        <mxCell id="OhS_zILh5ZkijewUsAzo-74" value="*" style="shape=partialRectangle;overflow=hidden;connectable=0;fillColor=none;top=0;left=0;bottom=0;right=0;fontSize=20;" vertex="1" parent="OhS_zILh5ZkijewUsAzo-73">
          <mxGeometry width="30" height="30" as="geometry">
            <mxRectangle width="30" height="30" as="alternateBounds" />
          </mxGeometry>
        </mxCell>
        <mxCell id="OhS_zILh5ZkijewUsAzo-75" value="Teremnev" style="shape=partialRectangle;overflow=hidden;connectable=0;fillColor=none;top=0;left=0;bottom=0;right=0;align=left;spacingLeft=6;fontSize=20;" vertex="1" parent="OhS_zILh5ZkijewUsAzo-73">
          <mxGeometry x="30" width="220" height="30" as="geometry">
            <mxRectangle width="220" height="30" as="alternateBounds" />
          </mxGeometry>
        </mxCell>
        <mxCell id="OhS_zILh5ZkijewUsAzo-76" value="" style="shape=partialRectangle;collapsible=0;dropTarget=0;pointerEvents=0;fillColor=none;points=[[0,0.5],[1,0.5]];portConstraint=eastwest;top=0;left=0;right=0;bottom=0;fontSize=20;" vertex="1" parent="OhS_zILh5ZkijewUsAzo-66">
          <mxGeometry y="90" width="250" height="30" as="geometry" />
        </mxCell>
        <mxCell id="OhS_zILh5ZkijewUsAzo-77" value="*" style="shape=partialRectangle;overflow=hidden;connectable=0;fillColor=none;top=0;left=0;bottom=0;right=0;fontSize=20;" vertex="1" parent="OhS_zILh5ZkijewUsAzo-76">
          <mxGeometry width="30" height="30" as="geometry">
            <mxRectangle width="30" height="30" as="alternateBounds" />
          </mxGeometry>
        </mxCell>
        <mxCell id="OhS_zILh5ZkijewUsAzo-78" value="Ferohely" style="shape=partialRectangle;overflow=hidden;connectable=0;fillColor=none;top=0;left=0;bottom=0;right=0;align=left;spacingLeft=6;fontSize=20;" vertex="1" parent="OhS_zILh5ZkijewUsAzo-76">
          <mxGeometry x="30" width="220" height="30" as="geometry">
            <mxRectangle width="220" height="30" as="alternateBounds" />
          </mxGeometry>
        </mxCell>
        <mxCell id="OhS_zILh5ZkijewUsAzo-79" value="" style="shape=partialRectangle;collapsible=0;dropTarget=0;pointerEvents=0;fillColor=none;points=[[0,0.5],[1,0.5]];portConstraint=eastwest;top=0;left=0;right=0;bottom=0;fontSize=20;" vertex="1" parent="OhS_zILh5ZkijewUsAzo-66">
          <mxGeometry y="120" width="250" height="30" as="geometry" />
        </mxCell>
        <mxCell id="OhS_zILh5ZkijewUsAzo-80" value="*" style="shape=partialRectangle;overflow=hidden;connectable=0;fillColor=none;top=0;left=0;bottom=0;right=0;fontSize=20;" vertex="1" parent="OhS_zILh5ZkijewUsAzo-79">
          <mxGeometry width="30" height="30" as="geometry">
            <mxRectangle width="30" height="30" as="alternateBounds" />
          </mxGeometry>
        </mxCell>
        <mxCell id="OhS_zILh5ZkijewUsAzo-81" value="Kompatibilis" style="shape=partialRectangle;overflow=hidden;connectable=0;fillColor=none;top=0;left=0;bottom=0;right=0;align=left;spacingLeft=6;fontSize=20;" vertex="1" parent="OhS_zILh5ZkijewUsAzo-79">
          <mxGeometry x="30" width="220" height="30" as="geometry">
            <mxRectangle width="220" height="30" as="alternateBounds" />
          </mxGeometry>
        </mxCell>
        <mxCell id="OhS_zILh5ZkijewUsAzo-82" value="TipusAr" style="shape=table;startSize=30;container=1;collapsible=1;childLayout=tableLayout;fixedRows=1;rowLines=0;fontStyle=1;align=center;resizeLast=1;fontSize=20;" vertex="1" parent="1">
          <mxGeometry x="1144" y="462" width="273.9999999999998" height="120" as="geometry" />
        </mxCell>
        <mxCell id="OhS_zILh5ZkijewUsAzo-83" value="" style="shape=partialRectangle;collapsible=0;dropTarget=0;pointerEvents=0;fillColor=none;points=[[0,0.5],[1,0.5]];portConstraint=eastwest;top=0;left=0;right=0;bottom=1;fontSize=20;" vertex="1" parent="OhS_zILh5ZkijewUsAzo-82">
          <mxGeometry y="30" width="273.9999999999998" height="30" as="geometry" />
        </mxCell>
        <mxCell id="OhS_zILh5ZkijewUsAzo-84" value="#" style="shape=partialRectangle;overflow=hidden;connectable=0;fillColor=none;top=0;left=0;bottom=0;right=0;fontStyle=1;fontSize=20;" vertex="1" parent="OhS_zILh5ZkijewUsAzo-83">
          <mxGeometry width="64" height="30" as="geometry">
            <mxRectangle width="64" height="30" as="alternateBounds" />
          </mxGeometry>
        </mxCell>
        <mxCell id="OhS_zILh5ZkijewUsAzo-85" value="Datum Kezdete" style="shape=partialRectangle;overflow=hidden;connectable=0;fillColor=none;top=0;left=0;bottom=0;right=0;align=left;spacingLeft=6;fontStyle=0;fontSize=20;" vertex="1" parent="OhS_zILh5ZkijewUsAzo-83">
          <mxGeometry x="64" width="209.99999999999977" height="30" as="geometry">
            <mxRectangle width="209.99999999999977" height="30" as="alternateBounds" />
          </mxGeometry>
        </mxCell>
        <mxCell id="OhS_zILh5ZkijewUsAzo-90" value="" style="shape=partialRectangle;collapsible=0;dropTarget=0;pointerEvents=0;fillColor=none;points=[[0,0.5],[1,0.5]];portConstraint=eastwest;top=0;left=0;right=0;bottom=0;fontSize=20;" vertex="1" parent="OhS_zILh5ZkijewUsAzo-82">
          <mxGeometry y="60" width="273.9999999999998" height="30" as="geometry" />
        </mxCell>
        <mxCell id="OhS_zILh5ZkijewUsAzo-91" value="*" style="shape=partialRectangle;overflow=hidden;connectable=0;fillColor=none;top=0;left=0;bottom=0;right=0;fontSize=20;" vertex="1" parent="OhS_zILh5ZkijewUsAzo-90">
          <mxGeometry width="64" height="30" as="geometry">
            <mxRectangle width="64" height="30" as="alternateBounds" />
          </mxGeometry>
        </mxCell>
        <mxCell id="OhS_zILh5ZkijewUsAzo-92" value="Ar" style="shape=partialRectangle;overflow=hidden;connectable=0;fillColor=none;top=0;left=0;bottom=0;right=0;align=left;spacingLeft=6;fontSize=20;" vertex="1" parent="OhS_zILh5ZkijewUsAzo-90">
          <mxGeometry x="64" width="209.99999999999977" height="30" as="geometry">
            <mxRectangle width="209.99999999999977" height="30" as="alternateBounds" />
          </mxGeometry>
        </mxCell>
        <mxCell id="OhS_zILh5ZkijewUsAzo-93" value="" style="shape=partialRectangle;collapsible=0;dropTarget=0;pointerEvents=0;fillColor=none;points=[[0,0.5],[1,0.5]];portConstraint=eastwest;top=0;left=0;right=0;bottom=0;fontSize=20;" vertex="1" parent="OhS_zILh5ZkijewUsAzo-82">
          <mxGeometry y="90" width="273.9999999999998" height="30" as="geometry" />
        </mxCell>
        <mxCell id="OhS_zILh5ZkijewUsAzo-94" value="o" style="shape=partialRectangle;overflow=hidden;connectable=0;fillColor=none;top=0;left=0;bottom=0;right=0;fontSize=20;" vertex="1" parent="OhS_zILh5ZkijewUsAzo-93">
          <mxGeometry width="64" height="30" as="geometry">
            <mxRectangle width="64" height="30" as="alternateBounds" />
          </mxGeometry>
        </mxCell>
        <mxCell id="OhS_zILh5ZkijewUsAzo-95" value="Datum_Vege" style="shape=partialRectangle;overflow=hidden;connectable=0;fillColor=none;top=0;left=0;bottom=0;right=0;align=left;spacingLeft=6;fontSize=20;" vertex="1" parent="OhS_zILh5ZkijewUsAzo-93">
          <mxGeometry x="64" width="209.99999999999977" height="30" as="geometry">
            <mxRectangle width="209.99999999999977" height="30" as="alternateBounds" />
          </mxGeometry>
        </mxCell>
        <mxCell id="OhS_zILh5ZkijewUsAzo-96" value="Tipus" style="shape=table;startSize=30;container=1;collapsible=1;childLayout=tableLayout;fixedRows=1;rowLines=0;fontStyle=1;align=center;resizeLast=1;fontSize=20;" vertex="1" parent="1">
          <mxGeometry x="771" y="483.5" width="250" height="60" as="geometry" />
        </mxCell>
        <mxCell id="OhS_zILh5ZkijewUsAzo-97" value="" style="shape=partialRectangle;collapsible=0;dropTarget=0;pointerEvents=0;fillColor=none;points=[[0,0.5],[1,0.5]];portConstraint=eastwest;top=0;left=0;right=0;bottom=1;fontSize=20;" vertex="1" parent="OhS_zILh5ZkijewUsAzo-96">
          <mxGeometry y="30" width="250" height="30" as="geometry" />
        </mxCell>
        <mxCell id="OhS_zILh5ZkijewUsAzo-98" value="#" style="shape=partialRectangle;overflow=hidden;connectable=0;fillColor=none;top=0;left=0;bottom=0;right=0;fontStyle=1;fontSize=20;" vertex="1" parent="OhS_zILh5ZkijewUsAzo-97">
          <mxGeometry width="30" height="30" as="geometry">
            <mxRectangle width="30" height="30" as="alternateBounds" />
          </mxGeometry>
        </mxCell>
        <mxCell id="OhS_zILh5ZkijewUsAzo-99" value="Tipus" style="shape=partialRectangle;overflow=hidden;connectable=0;fillColor=none;top=0;left=0;bottom=0;right=0;align=left;spacingLeft=6;fontStyle=0;fontSize=20;" vertex="1" parent="OhS_zILh5ZkijewUsAzo-97">
          <mxGeometry x="30" width="220" height="30" as="geometry">
            <mxRectangle width="220" height="30" as="alternateBounds" />
          </mxGeometry>
        </mxCell>
        <mxCell id="OhS_zILh5ZkijewUsAzo-100" value="" style="rhombus;whiteSpace=wrap;html=1;fontSize=20;" vertex="1" parent="1">
          <mxGeometry x="353" y="307" width="10" height="20" as="geometry" />
        </mxCell>
        <mxCell id="OhS_zILh5ZkijewUsAzo-102" value="Vetites" style="shape=table;startSize=30;container=1;collapsible=1;childLayout=tableLayout;fixedRows=1;rowLines=0;fontStyle=1;align=center;resizeLast=1;fontSize=20;" vertex="1" parent="1">
          <mxGeometry x="434" y="210" width="266" height="120" as="geometry" />
        </mxCell>
        <mxCell id="OhS_zILh5ZkijewUsAzo-103" value="" style="shape=partialRectangle;collapsible=0;dropTarget=0;pointerEvents=0;fillColor=none;points=[[0,0.5],[1,0.5]];portConstraint=eastwest;top=0;left=0;right=0;bottom=1;fontSize=20;" vertex="1" parent="OhS_zILh5ZkijewUsAzo-102">
          <mxGeometry y="30" width="266" height="30" as="geometry" />
        </mxCell>
        <mxCell id="OhS_zILh5ZkijewUsAzo-104" value="#" style="shape=partialRectangle;overflow=hidden;connectable=0;fillColor=none;top=0;left=0;bottom=0;right=0;fontStyle=1;fontSize=20;" vertex="1" parent="OhS_zILh5ZkijewUsAzo-103">
          <mxGeometry width="66" height="30" as="geometry">
            <mxRectangle width="66" height="30" as="alternateBounds" />
          </mxGeometry>
        </mxCell>
        <mxCell id="OhS_zILh5ZkijewUsAzo-105" value="Id" style="shape=partialRectangle;overflow=hidden;connectable=0;fillColor=none;top=0;left=0;bottom=0;right=0;align=left;spacingLeft=6;fontStyle=0;fontSize=20;" vertex="1" parent="OhS_zILh5ZkijewUsAzo-103">
          <mxGeometry x="66" width="200" height="30" as="geometry">
            <mxRectangle width="200" height="30" as="alternateBounds" />
          </mxGeometry>
        </mxCell>
        <mxCell id="OhS_zILh5ZkijewUsAzo-112" value="" style="shape=partialRectangle;collapsible=0;dropTarget=0;pointerEvents=0;fillColor=none;points=[[0,0.5],[1,0.5]];portConstraint=eastwest;top=0;left=0;right=0;bottom=0;fontSize=20;" vertex="1" parent="OhS_zILh5ZkijewUsAzo-102">
          <mxGeometry y="60" width="266" height="30" as="geometry" />
        </mxCell>
        <mxCell id="OhS_zILh5ZkijewUsAzo-113" value="*" style="shape=partialRectangle;overflow=hidden;connectable=0;fillColor=none;top=0;left=0;bottom=0;right=0;fontSize=20;" vertex="1" parent="OhS_zILh5ZkijewUsAzo-112">
          <mxGeometry width="66" height="30" as="geometry">
            <mxRectangle width="66" height="30" as="alternateBounds" />
          </mxGeometry>
        </mxCell>
        <mxCell id="OhS_zILh5ZkijewUsAzo-114" value="Helyek_Szama" style="shape=partialRectangle;overflow=hidden;connectable=0;fillColor=none;top=0;left=0;bottom=0;right=0;align=left;spacingLeft=6;fontSize=20;" vertex="1" parent="OhS_zILh5ZkijewUsAzo-112">
          <mxGeometry x="66" width="200" height="30" as="geometry">
            <mxRectangle width="200" height="30" as="alternateBounds" />
          </mxGeometry>
        </mxCell>
        <mxCell id="OhS_zILh5ZkijewUsAzo-115" value="" style="shape=partialRectangle;collapsible=0;dropTarget=0;pointerEvents=0;fillColor=none;points=[[0,0.5],[1,0.5]];portConstraint=eastwest;top=0;left=0;right=0;bottom=1;fontSize=20;" vertex="1" parent="OhS_zILh5ZkijewUsAzo-102">
          <mxGeometry y="90" width="266" height="30" as="geometry" />
        </mxCell>
        <mxCell id="OhS_zILh5ZkijewUsAzo-116" value="" style="shape=partialRectangle;overflow=hidden;connectable=0;fillColor=none;top=0;left=0;bottom=0;right=0;fontStyle=1;fontSize=20;" vertex="1" parent="OhS_zILh5ZkijewUsAzo-115">
          <mxGeometry width="66" height="30" as="geometry">
            <mxRectangle width="66" height="30" as="alternateBounds" />
          </mxGeometry>
        </mxCell>
        <mxCell id="OhS_zILh5ZkijewUsAzo-117" value="Datum" style="shape=partialRectangle;overflow=hidden;connectable=0;fillColor=none;top=0;left=0;bottom=0;right=0;align=left;spacingLeft=6;fontStyle=0;fontSize=20;" vertex="1" parent="OhS_zILh5ZkijewUsAzo-115">
          <mxGeometry x="66" width="200" height="30" as="geometry">
            <mxRectangle width="200" height="30" as="alternateBounds" />
          </mxGeometry>
        </mxCell>
        <mxCell id="OhS_zILh5ZkijewUsAzo-118" value="Valtozat" style="shape=table;startSize=30;container=1;collapsible=1;childLayout=tableLayout;fixedRows=1;rowLines=0;fontStyle=1;align=center;resizeLast=1;fontSize=20;" vertex="1" parent="1">
          <mxGeometry x="414" y="485.5" width="290" height="60" as="geometry" />
        </mxCell>
        <mxCell id="OhS_zILh5ZkijewUsAzo-119" value="" style="shape=partialRectangle;collapsible=0;dropTarget=0;pointerEvents=0;fillColor=none;points=[[0,0.5],[1,0.5]];portConstraint=eastwest;top=0;left=0;right=0;bottom=0;fontSize=20;" vertex="1" parent="OhS_zILh5ZkijewUsAzo-118">
          <mxGeometry y="30" width="290" height="30" as="geometry" />
        </mxCell>
        <mxCell id="OhS_zILh5ZkijewUsAzo-120" value="" style="shape=partialRectangle;overflow=hidden;connectable=0;fillColor=none;top=0;left=0;bottom=0;right=0;fontSize=20;" vertex="1" parent="OhS_zILh5ZkijewUsAzo-119">
          <mxGeometry width="60" height="30" as="geometry">
            <mxRectangle width="60" height="30" as="alternateBounds" />
          </mxGeometry>
        </mxCell>
        <mxCell id="OhS_zILh5ZkijewUsAzo-121" value="" style="shape=partialRectangle;overflow=hidden;connectable=0;fillColor=none;top=0;left=0;bottom=0;right=0;align=left;spacingLeft=6;fontSize=20;" vertex="1" parent="OhS_zILh5ZkijewUsAzo-119">
          <mxGeometry x="60" width="230" height="30" as="geometry">
            <mxRectangle width="230" height="30" as="alternateBounds" />
          </mxGeometry>
        </mxCell>
        <mxCell id="OhS_zILh5ZkijewUsAzo-125" value="Ertekesites" style="shape=table;startSize=30;container=1;collapsible=1;childLayout=tableLayout;fixedRows=1;rowLines=0;fontStyle=1;align=center;resizeLast=1;fontSize=20;" vertex="1" parent="1">
          <mxGeometry x="820" y="280" width="250" height="90" as="geometry" />
        </mxCell>
        <mxCell id="OhS_zILh5ZkijewUsAzo-126" value="" style="shape=partialRectangle;collapsible=0;dropTarget=0;pointerEvents=0;fillColor=none;points=[[0,0.5],[1,0.5]];portConstraint=eastwest;top=0;left=0;right=0;bottom=1;fontSize=20;" vertex="1" parent="OhS_zILh5ZkijewUsAzo-125">
          <mxGeometry y="30" width="250" height="30" as="geometry" />
        </mxCell>
        <mxCell id="OhS_zILh5ZkijewUsAzo-127" value="*" style="shape=partialRectangle;overflow=hidden;connectable=0;fillColor=none;top=0;left=0;bottom=0;right=0;fontStyle=1;fontSize=20;" vertex="1" parent="OhS_zILh5ZkijewUsAzo-126">
          <mxGeometry width="70" height="30" as="geometry">
            <mxRectangle width="70" height="30" as="alternateBounds" />
          </mxGeometry>
        </mxCell>
        <mxCell id="OhS_zILh5ZkijewUsAzo-128" value="Dátum" style="shape=partialRectangle;overflow=hidden;connectable=0;fillColor=none;top=0;left=0;bottom=0;right=0;align=left;spacingLeft=6;fontStyle=0;fontSize=20;" vertex="1" parent="OhS_zILh5ZkijewUsAzo-126">
          <mxGeometry x="70" width="180" height="30" as="geometry">
            <mxRectangle width="180" height="30" as="alternateBounds" />
          </mxGeometry>
        </mxCell>
        <mxCell id="OhS_zILh5ZkijewUsAzo-135" value="" style="shape=partialRectangle;collapsible=0;dropTarget=0;pointerEvents=0;fillColor=none;points=[[0,0.5],[1,0.5]];portConstraint=eastwest;top=0;left=0;right=0;bottom=0;fontSize=20;" vertex="1" parent="OhS_zILh5ZkijewUsAzo-125">
          <mxGeometry y="60" width="250" height="30" as="geometry" />
        </mxCell>
        <mxCell id="OhS_zILh5ZkijewUsAzo-136" value="*" style="shape=partialRectangle;overflow=hidden;connectable=0;fillColor=none;top=0;left=0;bottom=0;right=0;fontSize=20;" vertex="1" parent="OhS_zILh5ZkijewUsAzo-135">
          <mxGeometry width="70" height="30" as="geometry">
            <mxRectangle width="70" height="30" as="alternateBounds" />
          </mxGeometry>
        </mxCell>
        <mxCell id="OhS_zILh5ZkijewUsAzo-137" value="Sorozatszam" style="shape=partialRectangle;overflow=hidden;connectable=0;fillColor=none;top=0;left=0;bottom=0;right=0;align=left;spacingLeft=6;fontSize=20;" vertex="1" parent="OhS_zILh5ZkijewUsAzo-135">
          <mxGeometry x="70" width="180" height="30" as="geometry">
            <mxRectangle width="180" height="30" as="alternateBounds" />
          </mxGeometry>
        </mxCell>
        <mxCell id="OhS_zILh5ZkijewUsAzo-138" value="Vasarlo" style="shape=table;startSize=30;container=1;collapsible=1;childLayout=tableLayout;fixedRows=1;rowLines=0;fontStyle=1;align=center;resizeLast=1;fontSize=20;" vertex="1" parent="1">
          <mxGeometry x="1170" y="120" width="280" height="300" as="geometry" />
        </mxCell>
        <mxCell id="OhS_zILh5ZkijewUsAzo-139" value="" style="shape=partialRectangle;collapsible=0;dropTarget=0;pointerEvents=0;fillColor=none;points=[[0,0.5],[1,0.5]];portConstraint=eastwest;top=0;left=0;right=0;bottom=1;fontSize=20;" vertex="1" parent="OhS_zILh5ZkijewUsAzo-138">
          <mxGeometry y="30" width="280" height="30" as="geometry" />
        </mxCell>
        <mxCell id="OhS_zILh5ZkijewUsAzo-140" value="#" style="shape=partialRectangle;overflow=hidden;connectable=0;fillColor=none;top=0;left=0;bottom=0;right=0;fontStyle=1;fontSize=20;" vertex="1" parent="OhS_zILh5ZkijewUsAzo-139">
          <mxGeometry width="30" height="30" as="geometry">
            <mxRectangle width="30" height="30" as="alternateBounds" />
          </mxGeometry>
        </mxCell>
        <mxCell id="OhS_zILh5ZkijewUsAzo-141" value="Id" style="shape=partialRectangle;overflow=hidden;connectable=0;fillColor=none;top=0;left=0;bottom=0;right=0;align=left;spacingLeft=6;fontStyle=0;fontSize=20;" vertex="1" parent="OhS_zILh5ZkijewUsAzo-139">
          <mxGeometry x="30" width="250" height="30" as="geometry">
            <mxRectangle width="250" height="30" as="alternateBounds" />
          </mxGeometry>
        </mxCell>
        <mxCell id="OhS_zILh5ZkijewUsAzo-142" value="" style="shape=partialRectangle;collapsible=0;dropTarget=0;pointerEvents=0;fillColor=none;points=[[0,0.5],[1,0.5]];portConstraint=eastwest;top=0;left=0;right=0;bottom=0;fontSize=20;" vertex="1" parent="OhS_zILh5ZkijewUsAzo-138">
          <mxGeometry y="60" width="280" height="30" as="geometry" />
        </mxCell>
        <mxCell id="OhS_zILh5ZkijewUsAzo-143" value="*" style="shape=partialRectangle;overflow=hidden;connectable=0;fillColor=none;top=0;left=0;bottom=0;right=0;fontSize=20;" vertex="1" parent="OhS_zILh5ZkijewUsAzo-142">
          <mxGeometry width="30" height="30" as="geometry">
            <mxRectangle width="30" height="30" as="alternateBounds" />
          </mxGeometry>
        </mxCell>
        <mxCell id="OhS_zILh5ZkijewUsAzo-144" value="Vnev" style="shape=partialRectangle;overflow=hidden;connectable=0;fillColor=none;top=0;left=0;bottom=0;right=0;align=left;spacingLeft=6;fontSize=20;" vertex="1" parent="OhS_zILh5ZkijewUsAzo-142">
          <mxGeometry x="30" width="250" height="30" as="geometry">
            <mxRectangle width="250" height="30" as="alternateBounds" />
          </mxGeometry>
        </mxCell>
        <mxCell id="OhS_zILh5ZkijewUsAzo-145" value="" style="shape=partialRectangle;collapsible=0;dropTarget=0;pointerEvents=0;fillColor=none;points=[[0,0.5],[1,0.5]];portConstraint=eastwest;top=0;left=0;right=0;bottom=0;fontSize=20;" vertex="1" parent="OhS_zILh5ZkijewUsAzo-138">
          <mxGeometry y="90" width="280" height="30" as="geometry" />
        </mxCell>
        <mxCell id="OhS_zILh5ZkijewUsAzo-146" value="*" style="shape=partialRectangle;overflow=hidden;connectable=0;fillColor=none;top=0;left=0;bottom=0;right=0;fontSize=20;" vertex="1" parent="OhS_zILh5ZkijewUsAzo-145">
          <mxGeometry width="30" height="30" as="geometry">
            <mxRectangle width="30" height="30" as="alternateBounds" />
          </mxGeometry>
        </mxCell>
        <mxCell id="OhS_zILh5ZkijewUsAzo-147" value="Knev" style="shape=partialRectangle;overflow=hidden;connectable=0;fillColor=none;top=0;left=0;bottom=0;right=0;align=left;spacingLeft=6;fontSize=20;" vertex="1" parent="OhS_zILh5ZkijewUsAzo-145">
          <mxGeometry x="30" width="250" height="30" as="geometry">
            <mxRectangle width="250" height="30" as="alternateBounds" />
          </mxGeometry>
        </mxCell>
        <mxCell id="OhS_zILh5ZkijewUsAzo-148" value="" style="shape=partialRectangle;collapsible=0;dropTarget=0;pointerEvents=0;fillColor=none;points=[[0,0.5],[1,0.5]];portConstraint=eastwest;top=0;left=0;right=0;bottom=0;fontSize=20;" vertex="1" parent="OhS_zILh5ZkijewUsAzo-138">
          <mxGeometry y="120" width="280" height="30" as="geometry" />
        </mxCell>
        <mxCell id="OhS_zILh5ZkijewUsAzo-149" value="*" style="shape=partialRectangle;overflow=hidden;connectable=0;fillColor=none;top=0;left=0;bottom=0;right=0;fontSize=20;" vertex="1" parent="OhS_zILh5ZkijewUsAzo-148">
          <mxGeometry width="30" height="30" as="geometry">
            <mxRectangle width="30" height="30" as="alternateBounds" />
          </mxGeometry>
        </mxCell>
        <mxCell id="OhS_zILh5ZkijewUsAzo-150" value="E_mail" style="shape=partialRectangle;overflow=hidden;connectable=0;fillColor=none;top=0;left=0;bottom=0;right=0;align=left;spacingLeft=6;fontSize=20;" vertex="1" parent="OhS_zILh5ZkijewUsAzo-148">
          <mxGeometry x="30" width="250" height="30" as="geometry">
            <mxRectangle width="250" height="30" as="alternateBounds" />
          </mxGeometry>
        </mxCell>
        <mxCell id="OhS_zILh5ZkijewUsAzo-151" value="" style="shape=partialRectangle;collapsible=0;dropTarget=0;pointerEvents=0;fillColor=none;points=[[0,0.5],[1,0.5]];portConstraint=eastwest;top=0;left=0;right=0;bottom=0;fontSize=20;" vertex="1" parent="OhS_zILh5ZkijewUsAzo-138">
          <mxGeometry y="150" width="280" height="30" as="geometry" />
        </mxCell>
        <mxCell id="OhS_zILh5ZkijewUsAzo-152" value="*" style="shape=partialRectangle;overflow=hidden;connectable=0;fillColor=none;top=0;left=0;bottom=0;right=0;fontSize=20;" vertex="1" parent="OhS_zILh5ZkijewUsAzo-151">
          <mxGeometry width="30" height="30" as="geometry">
            <mxRectangle width="30" height="30" as="alternateBounds" />
          </mxGeometry>
        </mxCell>
        <mxCell id="OhS_zILh5ZkijewUsAzo-153" value="Telefonszam" style="shape=partialRectangle;overflow=hidden;connectable=0;fillColor=none;top=0;left=0;bottom=0;right=0;align=left;spacingLeft=6;fontSize=20;" vertex="1" parent="OhS_zILh5ZkijewUsAzo-151">
          <mxGeometry x="30" width="250" height="30" as="geometry">
            <mxRectangle width="250" height="30" as="alternateBounds" />
          </mxGeometry>
        </mxCell>
        <mxCell id="OhS_zILh5ZkijewUsAzo-154" value="" style="shape=partialRectangle;collapsible=0;dropTarget=0;pointerEvents=0;fillColor=none;points=[[0,0.5],[1,0.5]];portConstraint=eastwest;top=0;left=0;right=0;bottom=0;fontSize=20;" vertex="1" parent="OhS_zILh5ZkijewUsAzo-138">
          <mxGeometry y="180" width="280" height="30" as="geometry" />
        </mxCell>
        <mxCell id="OhS_zILh5ZkijewUsAzo-155" value="*" style="shape=partialRectangle;overflow=hidden;connectable=0;fillColor=none;top=0;left=0;bottom=0;right=0;fontSize=20;" vertex="1" parent="OhS_zILh5ZkijewUsAzo-154">
          <mxGeometry width="30" height="30" as="geometry">
            <mxRectangle width="30" height="30" as="alternateBounds" />
          </mxGeometry>
        </mxCell>
        <mxCell id="OhS_zILh5ZkijewUsAzo-156" value="Allapot" style="shape=partialRectangle;overflow=hidden;connectable=0;fillColor=none;top=0;left=0;bottom=0;right=0;align=left;spacingLeft=6;fontSize=20;" vertex="1" parent="OhS_zILh5ZkijewUsAzo-154">
          <mxGeometry x="30" width="250" height="30" as="geometry">
            <mxRectangle width="250" height="30" as="alternateBounds" />
          </mxGeometry>
        </mxCell>
        <mxCell id="OhS_zILh5ZkijewUsAzo-157" value="" style="shape=partialRectangle;collapsible=0;dropTarget=0;pointerEvents=0;fillColor=none;points=[[0,0.5],[1,0.5]];portConstraint=eastwest;top=0;left=0;right=0;bottom=0;fontSize=20;" vertex="1" parent="OhS_zILh5ZkijewUsAzo-138">
          <mxGeometry y="210" width="280" height="30" as="geometry" />
        </mxCell>
        <mxCell id="OhS_zILh5ZkijewUsAzo-158" value="o" style="shape=partialRectangle;overflow=hidden;connectable=0;fillColor=none;top=0;left=0;bottom=0;right=0;fontSize=20;" vertex="1" parent="OhS_zILh5ZkijewUsAzo-157">
          <mxGeometry width="30" height="30" as="geometry">
            <mxRectangle width="30" height="30" as="alternateBounds" />
          </mxGeometry>
        </mxCell>
        <mxCell id="OhS_zILh5ZkijewUsAzo-159" value="Adoszam" style="shape=partialRectangle;overflow=hidden;connectable=0;fillColor=none;top=0;left=0;bottom=0;right=0;align=left;spacingLeft=6;fontSize=20;" vertex="1" parent="OhS_zILh5ZkijewUsAzo-157">
          <mxGeometry x="30" width="250" height="30" as="geometry">
            <mxRectangle width="250" height="30" as="alternateBounds" />
          </mxGeometry>
        </mxCell>
        <mxCell id="OhS_zILh5ZkijewUsAzo-160" value="" style="shape=partialRectangle;collapsible=0;dropTarget=0;pointerEvents=0;fillColor=none;points=[[0,0.5],[1,0.5]];portConstraint=eastwest;top=0;left=0;right=0;bottom=0;fontSize=20;" vertex="1" parent="OhS_zILh5ZkijewUsAzo-138">
          <mxGeometry y="240" width="280" height="30" as="geometry" />
        </mxCell>
        <mxCell id="OhS_zILh5ZkijewUsAzo-161" value="*" style="shape=partialRectangle;overflow=hidden;connectable=0;fillColor=none;top=0;left=0;bottom=0;right=0;fontSize=20;" vertex="1" parent="OhS_zILh5ZkijewUsAzo-160">
          <mxGeometry width="30" height="30" as="geometry">
            <mxRectangle width="30" height="30" as="alternateBounds" />
          </mxGeometry>
        </mxCell>
        <mxCell id="OhS_zILh5ZkijewUsAzo-162" value="Jelszo" style="shape=partialRectangle;overflow=hidden;connectable=0;fillColor=none;top=0;left=0;bottom=0;right=0;align=left;spacingLeft=6;fontSize=20;" vertex="1" parent="OhS_zILh5ZkijewUsAzo-160">
          <mxGeometry x="30" width="250" height="30" as="geometry">
            <mxRectangle width="250" height="30" as="alternateBounds" />
          </mxGeometry>
        </mxCell>
        <mxCell id="OhS_zILh5ZkijewUsAzo-163" value="" style="shape=partialRectangle;collapsible=0;dropTarget=0;pointerEvents=0;fillColor=none;points=[[0,0.5],[1,0.5]];portConstraint=eastwest;top=0;left=0;right=0;bottom=0;fontSize=20;" vertex="1" parent="OhS_zILh5ZkijewUsAzo-138">
          <mxGeometry y="270" width="280" height="30" as="geometry" />
        </mxCell>
        <mxCell id="OhS_zILh5ZkijewUsAzo-164" value="*" style="shape=partialRectangle;overflow=hidden;connectable=0;fillColor=none;top=0;left=0;bottom=0;right=0;fontSize=20;" vertex="1" parent="OhS_zILh5ZkijewUsAzo-163">
          <mxGeometry width="30" height="30" as="geometry">
            <mxRectangle width="30" height="30" as="alternateBounds" />
          </mxGeometry>
        </mxCell>
        <mxCell id="OhS_zILh5ZkijewUsAzo-165" value="Utolsobelepes_Datum" style="shape=partialRectangle;overflow=hidden;connectable=0;fillColor=none;top=0;left=0;bottom=0;right=0;align=left;spacingLeft=6;fontSize=20;" vertex="1" parent="OhS_zILh5ZkijewUsAzo-163">
          <mxGeometry x="30" width="250" height="30" as="geometry">
            <mxRectangle width="250" height="30" as="alternateBounds" />
          </mxGeometry>
        </mxCell>
        <mxCell id="OhS_zILh5ZkijewUsAzo-167" value="Kosar" style="shape=table;startSize=30;container=1;collapsible=1;childLayout=tableLayout;fixedRows=1;rowLines=0;fontStyle=1;align=center;resizeLast=1;fontSize=20;" vertex="1" parent="1">
          <mxGeometry x="820" y="170" width="250" height="90.00000000000011" as="geometry" />
        </mxCell>
        <mxCell id="OhS_zILh5ZkijewUsAzo-168" value="" style="shape=partialRectangle;collapsible=0;dropTarget=0;pointerEvents=0;fillColor=none;points=[[0,0.5],[1,0.5]];portConstraint=eastwest;top=0;left=0;right=0;bottom=1;fontSize=20;" vertex="1" parent="OhS_zILh5ZkijewUsAzo-167">
          <mxGeometry y="30" width="250" height="30" as="geometry" />
        </mxCell>
        <mxCell id="OhS_zILh5ZkijewUsAzo-169" value="#" style="shape=partialRectangle;overflow=hidden;connectable=0;fillColor=none;top=0;left=0;bottom=0;right=0;fontStyle=1;fontSize=20;" vertex="1" parent="OhS_zILh5ZkijewUsAzo-168">
          <mxGeometry width="60" height="30" as="geometry">
            <mxRectangle width="60" height="30" as="alternateBounds" />
          </mxGeometry>
        </mxCell>
        <mxCell id="OhS_zILh5ZkijewUsAzo-170" value="Dátum" style="shape=partialRectangle;overflow=hidden;connectable=0;fillColor=none;top=0;left=0;bottom=0;right=0;align=left;spacingLeft=6;fontStyle=0;fontSize=20;" vertex="1" parent="OhS_zILh5ZkijewUsAzo-168">
          <mxGeometry x="60" width="190" height="30" as="geometry">
            <mxRectangle width="190" height="30" as="alternateBounds" />
          </mxGeometry>
        </mxCell>
        <mxCell id="OhS_zILh5ZkijewUsAzo-177" value="" style="shape=partialRectangle;collapsible=0;dropTarget=0;pointerEvents=0;fillColor=none;points=[[0,0.5],[1,0.5]];portConstraint=eastwest;top=0;left=0;right=0;bottom=0;fontSize=20;" vertex="1" parent="OhS_zILh5ZkijewUsAzo-167">
          <mxGeometry y="60" width="250" height="30" as="geometry" />
        </mxCell>
        <mxCell id="OhS_zILh5ZkijewUsAzo-178" value="*" style="shape=partialRectangle;overflow=hidden;connectable=0;fillColor=none;top=0;left=0;bottom=0;right=0;fontSize=20;" vertex="1" parent="OhS_zILh5ZkijewUsAzo-177">
          <mxGeometry width="60" height="30" as="geometry">
            <mxRectangle width="60" height="30" as="alternateBounds" />
          </mxGeometry>
        </mxCell>
        <mxCell id="OhS_zILh5ZkijewUsAzo-179" value="Darabszam" style="shape=partialRectangle;overflow=hidden;connectable=0;fillColor=none;top=0;left=0;bottom=0;right=0;align=left;spacingLeft=6;fontSize=20;" vertex="1" parent="OhS_zILh5ZkijewUsAzo-177">
          <mxGeometry x="60" width="190" height="30" as="geometry">
            <mxRectangle width="190" height="30" as="alternateBounds" />
          </mxGeometry>
        </mxCell>
        <mxCell id="OhS_zILh5ZkijewUsAzo-187" value="" style="edgeStyle=orthogonalEdgeStyle;fontSize=12;html=1;endArrow=ERmany;rounded=0;fontFamily=Helvetica;fontColor=default;startSize=30;entryX=1.001;entryY=0.213;entryDx=0;entryDy=0;entryPerimeter=0;" edge="1" parent="1" target="OhS_zILh5ZkijewUsAzo-76">
          <mxGeometry width="100" height="100" relative="1" as="geometry">
            <mxPoint x="380" y="471" as="sourcePoint" />
            <mxPoint x="380" y="330.51" as="targetPoint" />
          </mxGeometry>
        </mxCell>
        <mxCell id="OhS_zILh5ZkijewUsAzo-188" value="" style="endArrow=none;dashed=1;html=1;rounded=0;fontFamily=Helvetica;fontSize=20;fontColor=default;startSize=30;exitX=1;exitY=0.5;exitDx=0;exitDy=0;edgeStyle=orthogonalEdgeStyle;" edge="1" parent="1" source="OhS_zILh5ZkijewUsAzo-36">
          <mxGeometry width="50" height="50" relative="1" as="geometry">
            <mxPoint x="364" y="520" as="sourcePoint" />
            <mxPoint x="380" y="470" as="targetPoint" />
          </mxGeometry>
        </mxCell>
        <mxCell id="OhS_zILh5ZkijewUsAzo-189" value="" style="endArrow=none;dashed=1;html=1;rounded=0;fontFamily=Helvetica;fontSize=20;fontColor=default;startSize=30;exitX=1;exitY=0.5;exitDx=0;exitDy=0;" edge="1" parent="1">
          <mxGeometry width="50" height="50" relative="1" as="geometry">
            <mxPoint x="344" y="265" as="sourcePoint" />
            <mxPoint x="390" y="265" as="targetPoint" />
          </mxGeometry>
        </mxCell>
        <mxCell id="OhS_zILh5ZkijewUsAzo-190" value="" style="fontSize=12;html=1;endArrow=ERmany;rounded=0;fontFamily=Helvetica;fontColor=default;startSize=30;" edge="1" parent="1">
          <mxGeometry width="100" height="100" relative="1" as="geometry">
            <mxPoint x="384" y="265" as="sourcePoint" />
            <mxPoint x="434" y="265" as="targetPoint" />
          </mxGeometry>
        </mxCell>
        <mxCell id="OhS_zILh5ZkijewUsAzo-191" value="" style="endArrow=none;dashed=1;html=1;rounded=0;fontFamily=Helvetica;fontSize=20;fontColor=default;startSize=30;exitX=0.472;exitY=1.043;exitDx=0;exitDy=0;exitPerimeter=0;" edge="1" parent="1" source="OhS_zILh5ZkijewUsAzo-115">
          <mxGeometry width="50" height="50" relative="1" as="geometry">
            <mxPoint x="560" y="400" as="sourcePoint" />
            <mxPoint x="560" y="450" as="targetPoint" />
          </mxGeometry>
        </mxCell>
        <mxCell id="OhS_zILh5ZkijewUsAzo-192" value="" style="fontSize=12;html=1;endArrow=ERmany;rounded=0;fontFamily=Helvetica;fontColor=default;startSize=30;" edge="1" parent="1">
          <mxGeometry width="100" height="100" relative="1" as="geometry">
            <mxPoint x="560" y="449" as="sourcePoint" />
            <mxPoint x="560" y="485" as="targetPoint" />
          </mxGeometry>
        </mxCell>
        <mxCell id="OhS_zILh5ZkijewUsAzo-193" value="" style="endArrow=none;dashed=1;html=1;rounded=0;fontFamily=Helvetica;fontSize=20;fontColor=default;startSize=30;entryX=0.389;entryY=-0.007;entryDx=0;entryDy=0;entryPerimeter=0;" edge="1" parent="1">
          <mxGeometry width="50" height="50" relative="1" as="geometry">
            <mxPoint x="534" y="600" as="sourcePoint" />
            <mxPoint x="534.25" y="637.4799999999999" as="targetPoint" />
          </mxGeometry>
        </mxCell>
        <mxCell id="OhS_zILh5ZkijewUsAzo-194" value="" style="fontSize=12;html=1;endArrow=ERmany;rounded=0;fontFamily=Helvetica;fontColor=default;startSize=30;entryX=0.412;entryY=1.027;entryDx=0;entryDy=0;entryPerimeter=0;" edge="1" parent="1" target="OhS_zILh5ZkijewUsAzo-119">
          <mxGeometry width="100" height="100" relative="1" as="geometry">
            <mxPoint x="534" y="603" as="sourcePoint" />
            <mxPoint x="534.06" y="584.4100000000001" as="targetPoint" />
          </mxGeometry>
        </mxCell>
        <mxCell id="OhS_zILh5ZkijewUsAzo-195" value="" style="fontSize=12;html=1;endArrow=ERmany;rounded=0;fontFamily=Helvetica;fontColor=default;startSize=30;entryX=1;entryY=0.5;entryDx=0;entryDy=0;" edge="1" parent="1">
          <mxGeometry width="100" height="100" relative="1" as="geometry">
            <mxPoint x="730" y="514" as="sourcePoint" />
            <mxPoint x="704" y="514.5" as="targetPoint" />
          </mxGeometry>
        </mxCell>
        <mxCell id="OhS_zILh5ZkijewUsAzo-196" value="" style="endArrow=none;dashed=1;html=1;rounded=0;fontFamily=Helvetica;fontSize=20;fontColor=default;startSize=30;exitX=-0.007;exitY=0.017;exitDx=0;exitDy=0;exitPerimeter=0;" edge="1" parent="1" source="OhS_zILh5ZkijewUsAzo-97">
          <mxGeometry width="50" height="50" relative="1" as="geometry">
            <mxPoint x="740" y="480" as="sourcePoint" />
            <mxPoint x="730" y="514" as="targetPoint" />
          </mxGeometry>
        </mxCell>
        <mxCell id="OhS_zILh5ZkijewUsAzo-197" value="" style="endArrow=none;dashed=1;html=1;rounded=0;fontFamily=Helvetica;fontSize=20;fontColor=default;startSize=30;" edge="1" parent="1">
          <mxGeometry width="50" height="50" relative="1" as="geometry">
            <mxPoint x="1060" y="531" as="sourcePoint" />
            <mxPoint x="1020" y="531" as="targetPoint" />
          </mxGeometry>
        </mxCell>
        <mxCell id="OhS_zILh5ZkijewUsAzo-198" value="" style="fontSize=12;html=1;endArrow=ERmany;rounded=0;fontFamily=Helvetica;fontColor=default;startSize=30;entryX=-0.001;entryY=0.027;entryDx=0;entryDy=0;entryPerimeter=0;" edge="1" parent="1">
          <mxGeometry width="100" height="100" relative="1" as="geometry">
            <mxPoint x="1064.27" y="531" as="sourcePoint" />
            <mxPoint x="1143.996" y="531.8100000000002" as="targetPoint" />
          </mxGeometry>
        </mxCell>
        <mxCell id="OhS_zILh5ZkijewUsAzo-199" value="" style="fontSize=12;html=1;endArrow=ERmany;rounded=0;fontFamily=Helvetica;fontColor=default;startSize=30;entryX=-0.001;entryY=0.027;entryDx=0;entryDy=0;entryPerimeter=0;" edge="1" parent="1">
          <mxGeometry width="100" height="100" relative="1" as="geometry">
            <mxPoint x="740" y="292" as="sourcePoint" />
            <mxPoint x="820" y="293" as="targetPoint" />
          </mxGeometry>
        </mxCell>
        <mxCell id="OhS_zILh5ZkijewUsAzo-200" value="" style="endArrow=none;dashed=1;html=1;rounded=0;fontFamily=Helvetica;fontSize=20;fontColor=default;startSize=30;entryX=1.002;entryY=0.628;entryDx=0;entryDy=0;entryPerimeter=0;" edge="1" parent="1">
          <mxGeometry width="50" height="50" relative="1" as="geometry">
            <mxPoint x="740" y="292" as="sourcePoint" />
            <mxPoint x="700.5319999999999" y="291.8399999999999" as="targetPoint" />
          </mxGeometry>
        </mxCell>
        <mxCell id="OhS_zILh5ZkijewUsAzo-201" value="" style="fontSize=12;html=1;endArrow=ERmany;rounded=0;fontFamily=Helvetica;fontColor=default;startSize=30;entryX=-0.001;entryY=0.027;entryDx=0;entryDy=0;entryPerimeter=0;" edge="1" parent="1">
          <mxGeometry width="100" height="100" relative="1" as="geometry">
            <mxPoint x="740" y="228" as="sourcePoint" />
            <mxPoint x="820" y="229" as="targetPoint" />
          </mxGeometry>
        </mxCell>
        <mxCell id="OhS_zILh5ZkijewUsAzo-202" value="" style="endArrow=none;dashed=1;html=1;rounded=0;fontFamily=Helvetica;fontSize=20;fontColor=default;startSize=30;exitX=-0.007;exitY=0.017;exitDx=0;exitDy=0;exitPerimeter=0;entryX=1.001;entryY=0.165;entryDx=0;entryDy=0;entryPerimeter=0;" edge="1" parent="1">
          <mxGeometry width="50" height="50" relative="1" as="geometry">
            <mxPoint x="737" y="228" as="sourcePoint" />
            <mxPoint x="700" y="228" as="targetPoint" />
          </mxGeometry>
        </mxCell>
        <mxCell id="OhS_zILh5ZkijewUsAzo-203" value="" style="fontSize=12;html=1;endArrow=ERmany;rounded=0;fontFamily=Helvetica;fontColor=default;startSize=30;entryX=1.008;entryY=0.722;entryDx=0;entryDy=0;entryPerimeter=0;" edge="1" parent="1">
          <mxGeometry width="100" height="100" relative="1" as="geometry">
            <mxPoint x="1108" y="202" as="sourcePoint" />
            <mxPoint x="1070" y="201.65999999999997" as="targetPoint" />
          </mxGeometry>
        </mxCell>
        <mxCell id="OhS_zILh5ZkijewUsAzo-204" value="" style="endArrow=none;dashed=1;html=1;rounded=0;fontFamily=Helvetica;fontSize=20;fontColor=default;startSize=30;exitX=0;exitY=0.733;exitDx=0;exitDy=0;exitPerimeter=0;entryX=1.001;entryY=0.165;entryDx=0;entryDy=0;entryPerimeter=0;" edge="1" parent="1" source="OhS_zILh5ZkijewUsAzo-142">
          <mxGeometry width="50" height="50" relative="1" as="geometry">
            <mxPoint x="1144" y="202" as="sourcePoint" />
            <mxPoint x="1107" y="202" as="targetPoint" />
          </mxGeometry>
        </mxCell>
        <mxCell id="OhS_zILh5ZkijewUsAzo-205" value="" style="fontSize=12;html=1;endArrow=ERmany;rounded=0;fontFamily=Helvetica;fontColor=default;startSize=30;entryX=1.008;entryY=0.722;entryDx=0;entryDy=0;entryPerimeter=0;" edge="1" parent="1">
          <mxGeometry width="100" height="100" relative="1" as="geometry">
            <mxPoint x="1108" y="329" as="sourcePoint" />
            <mxPoint x="1070" y="328.65999999999997" as="targetPoint" />
          </mxGeometry>
        </mxCell>
        <mxCell id="OhS_zILh5ZkijewUsAzo-206" value="" style="endArrow=none;dashed=1;html=1;rounded=0;fontFamily=Helvetica;fontSize=20;fontColor=default;startSize=30;exitX=0;exitY=0.733;exitDx=0;exitDy=0;exitPerimeter=0;entryX=1.001;entryY=0.165;entryDx=0;entryDy=0;entryPerimeter=0;" edge="1" parent="1">
          <mxGeometry width="50" height="50" relative="1" as="geometry">
            <mxPoint x="1170" y="329" as="sourcePoint" />
            <mxPoint x="1107" y="329" as="targetPoint" />
          </mxGeometry>
        </mxCell>
        <mxCell id="f0PcStI2C8dQMHa70r9g-1" value="tartoznak" style="text;html=1;align=center;verticalAlign=middle;resizable=0;points=[];autosize=1;strokeColor=none;fillColor=none;" vertex="1" parent="1">
          <mxGeometry x="757" y="200" width="70" height="30" as="geometry" />
        </mxCell>
        <mxCell id="f0PcStI2C8dQMHa70r9g-2" value="tartoznak" style="text;html=1;align=center;verticalAlign=middle;resizable=0;points=[];autosize=1;strokeColor=none;fillColor=none;" vertex="1" parent="1">
          <mxGeometry x="1067" y="173" width="70" height="30" as="geometry" />
        </mxCell>
        <mxCell id="f0PcStI2C8dQMHa70r9g-3" value="tartoznak" style="text;html=1;align=center;verticalAlign=middle;resizable=0;points=[];autosize=1;strokeColor=none;fillColor=none;" vertex="1" parent="1">
          <mxGeometry x="1067" y="300" width="70" height="30" as="geometry" />
        </mxCell>
        <mxCell id="f0PcStI2C8dQMHa70r9g-4" value="tartoznak" style="text;html=1;align=center;verticalAlign=middle;resizable=0;points=[];autosize=1;strokeColor=none;fillColor=none;" vertex="1" parent="1">
          <mxGeometry x="1077" y="504" width="70" height="30" as="geometry" />
        </mxCell>
        <mxCell id="f0PcStI2C8dQMHa70r9g-5" value="tartozik" style="text;html=1;align=center;verticalAlign=middle;resizable=0;points=[];autosize=1;strokeColor=none;fillColor=none;" vertex="1" parent="1">
          <mxGeometry x="1015" y="523.5" width="60" height="30" as="geometry" />
        </mxCell>
        <mxCell id="f0PcStI2C8dQMHa70r9g-6" value="tartozik" style="text;html=1;align=center;verticalAlign=middle;resizable=0;points=[];autosize=1;strokeColor=none;fillColor=none;" vertex="1" parent="1">
          <mxGeometry x="697" y="230" width="60" height="30" as="geometry" />
        </mxCell>
        <mxCell id="f0PcStI2C8dQMHa70r9g-7" value="tartozik" style="text;html=1;align=center;verticalAlign=middle;resizable=0;points=[];autosize=1;strokeColor=none;fillColor=none;" vertex="1" parent="1">
          <mxGeometry x="1119" y="201" width="60" height="30" as="geometry" />
        </mxCell>
        <mxCell id="f0PcStI2C8dQMHa70r9g-8" value="tartozik" style="text;html=1;align=center;verticalAlign=middle;resizable=0;points=[];autosize=1;strokeColor=none;fillColor=none;" vertex="1" parent="1">
          <mxGeometry x="1115" y="332" width="60" height="30" as="geometry" />
        </mxCell>
        <mxCell id="f0PcStI2C8dQMHa70r9g-9" value="tartozik" style="text;html=1;align=center;verticalAlign=middle;resizable=0;points=[];autosize=1;strokeColor=none;fillColor=none;" vertex="1" parent="1">
          <mxGeometry x="346" y="240" width="60" height="30" as="geometry" />
        </mxCell>
        <mxCell id="f0PcStI2C8dQMHa70r9g-10" value="tartoznak" style="text;html=1;align=center;verticalAlign=middle;resizable=0;points=[];autosize=1;strokeColor=none;fillColor=none;" vertex="1" parent="1">
          <mxGeometry x="377" y="270" width="70" height="30" as="geometry" />
        </mxCell>
        <mxCell id="f0PcStI2C8dQMHa70r9g-11" value="tartoznak" style="text;html=1;align=center;verticalAlign=middle;resizable=0;points=[];autosize=1;strokeColor=none;fillColor=none;" vertex="1" parent="1">
          <mxGeometry x="341" y="280" width="70" height="30" as="geometry" />
        </mxCell>
        <mxCell id="f0PcStI2C8dQMHa70r9g-12" value="tartozik" style="text;html=1;align=center;verticalAlign=middle;resizable=0;points=[];autosize=1;strokeColor=none;fillColor=none;" vertex="1" parent="1">
          <mxGeometry x="344" y="515.5" width="60" height="30" as="geometry" />
        </mxCell>
        <mxCell id="f0PcStI2C8dQMHa70r9g-13" value="tartoznak" style="text;html=1;align=center;verticalAlign=middle;resizable=0;points=[];autosize=1;strokeColor=none;fillColor=none;" vertex="1" parent="1">
          <mxGeometry x="497" y="460" width="70" height="30" as="geometry" />
        </mxCell>
        <mxCell id="f0PcStI2C8dQMHa70r9g-14" value="tartozik" style="text;html=1;align=center;verticalAlign=middle;resizable=0;points=[];autosize=1;strokeColor=none;fillColor=none;" vertex="1" parent="1">
          <mxGeometry x="567" y="330" width="60" height="30" as="geometry" />
        </mxCell>
        <mxCell id="f0PcStI2C8dQMHa70r9g-15" value="tartoznak" style="text;html=1;align=center;verticalAlign=middle;resizable=0;points=[];autosize=1;strokeColor=none;fillColor=none;" vertex="1" parent="1">
          <mxGeometry x="532" y="545.5" width="70" height="30" as="geometry" />
        </mxCell>
        <mxCell id="f0PcStI2C8dQMHa70r9g-16" value="tartozik" style="text;html=1;align=center;verticalAlign=middle;resizable=0;points=[];autosize=1;strokeColor=none;fillColor=none;" vertex="1" parent="1">
          <mxGeometry x="472" y="610" width="60" height="30" as="geometry" />
        </mxCell>
        <mxCell id="f0PcStI2C8dQMHa70r9g-17" value="tartozik" style="text;html=1;align=center;verticalAlign=middle;resizable=0;points=[];autosize=1;strokeColor=none;fillColor=none;" vertex="1" parent="1">
          <mxGeometry x="720" y="513.5" width="60" height="30" as="geometry" />
        </mxCell>
        <mxCell id="f0PcStI2C8dQMHa70r9g-18" value="tartoznak" style="text;html=1;align=center;verticalAlign=middle;resizable=0;points=[];autosize=1;strokeColor=none;fillColor=none;" vertex="1" parent="1">
          <mxGeometry x="694" y="483.5" width="70" height="30" as="geometry" />
        </mxCell>
        <mxCell id="f0PcStI2C8dQMHa70r9g-19" value="tartozik" style="text;html=1;align=center;verticalAlign=middle;resizable=0;points=[];autosize=1;strokeColor=none;fillColor=none;" vertex="1" parent="1">
          <mxGeometry x="690" y="290" width="60" height="30" as="geometry" />
        </mxCell>
        <mxCell id="f0PcStI2C8dQMHa70r9g-20" value="tartoznak" style="text;html=1;align=center;verticalAlign=middle;resizable=0;points=[];autosize=1;strokeColor=none;fillColor=none;" vertex="1" parent="1">
          <mxGeometry x="757" y="268" width="70" height="30" as="geometry" />
        </mxCell>
      </root>
    </mxGraphModel>
  </diagram>
</mxfile>
